<?xml version="1.0" encoding="UTF-8"?>
<svg width="422px" height="533px" viewBox="0 0 422 533" version="1.1" xmlns="http://www.w3.org/2000/svg" xmlns:xlink="http://www.w3.org/1999/xlink">
    <!-- Generator: Sketch 48.2 (47327) - http://www.bohemiancoding.com/sketch -->
    <title>Logo</title>
    <desc>Created with Sketch.</desc>
    <defs>
        <path d="M160,271 C143.5,271 130,257.25 130,241 C130,224.75 143.75,211 160,211 C176.25,211 190,224.75 190,241 C190,257.25 176.25,271 160,271 Z" id="path-1"></path>
        <path d="M290,30 C290,13.75 303.75,0 320,0 C336.25,0 350,13.75 350,30 C350,46.25 336.25,60 320,60 C303.5,60 290,46.25 290,30 Z" id="path-2"></path>
        <path d="M31.88,59.8285414 C15.446,59.8285414 2,46.117834 2,29.9142707 C2,13.7107074 15.695,0 31.88,0 C48.065,0 61.76,13.7107074 61.76,29.9142707 C61.76,46.117834 48.065,59.8285414 31.88,59.8285414 Z" id="path-3"></path>
        <path d="M29.88,456.828541 C13.446,456.828541 0,443.117834 0,426.914271 C0,410.710707 13.695,397 29.88,397 C46.065,397 59.76,410.710707 59.76,426.914271 C59.76,443.117834 46.065,456.828541 29.88,456.828541 Z" id="path-4"></path>
        <path d="M30.88,238 C14.446,238 1,224.289293 1,208.085729 C1,191.882166 14.695,178.171459 30.88,178.171459 C47.065,178.171459 60.76,191.882166 60.76,208.085729 C60.76,224.289293 47.065,238 30.88,238 Z" id="path-5"></path>
    </defs>
    <g id="Page-1" stroke="none" stroke-width="1" fill="none" fill-rule="evenodd">
        <g id="Logo" transform="translate(21.000000, 21.000000)">
            <g id="Branch" transform="translate(30.000000, 0.000000)">
                <path d="M0,417 C9.11865992e-05,370.666667 26.6667579,347.5 80,347.5 C133.333242,347.5 159.999909,324.333333 160,278" id="Path-4" stroke="#7057FF" stroke-width="50"></path>
                <path d="M160,206 C160.000091,159.666667 186.666758,136.5 240,136.5 C293.333242,136.5 319.999909,113.333333 320,67" id="Path-4" stroke="#7057FF" stroke-width="50"></path>
                <g id="Path">
                    <use fill="#FFFFFF" fill-rule="evenodd" xlink:href="#path-1"></use>
                    <path stroke="#7057FF" stroke-width="21" d="M160,281.5 C137.773212,281.5 119.5,263.12177 119.5,241 C119.5,218.95101 137.95101,200.5 160,200.5 C182.04899,200.5 200.5,218.95101 200.5,241 C200.5,263.04899 182.04899,281.5 160,281.5 Z"></path>
                </g>
                <g id="Path">
                    <use fill="#FFFFFF" fill-rule="evenodd" xlink:href="#path-2"></use>
                    <path stroke="#7057FF" stroke-width="21" d="M279.5,30 C279.5,7.95101013 297.95101,-10.5 320,-10.5 C342.04899,-10.5 360.5,7.95101013 360.5,30 C360.5,52.0489899 342.04899,70.5 320,70.5 C297.773212,70.5 279.5,52.1217696 279.5,30 Z"></path>
                </g>
            </g>
            <g id="Upstream" transform="translate(0.000000, 34.000000)">
                <path d="M30.5,62.5 L30.5,138.5" id="Line" stroke="#24292E" stroke-width="53" stroke-linecap="square"></path>
                <g id="Path">
                    <use fill="#FFFFFF" fill-rule="evenodd" xlink:href="#path-3"></use>
                    <path stroke="#24292E" stroke-width="21" d="M31.88,70.3285414 C9.71615603,70.3285414 -8.5,51.9866818 -8.5,29.9142707 C-8.5,7.91441017 9.89331407,-10.5 31.88,-10.5 C53.8666859,-10.5 72.26,7.91441017 72.26,29.9142707 C72.26,51.9141312 53.8666859,70.3285414 31.88,70.3285414 Z"></path>
                </g>
                <g id="Path">
                    <use fill="#FFFFFF" fill-rule="evenodd" xlink:href="#path-4"></use>
                    <path stroke="#24292E" stroke-width="21" d="M29.88,467.328541 C7.71615603,467.328541 -10.5,448.986682 -10.5,426.914271 C-10.5,404.91441 7.89331407,386.5 29.88,386.5 C51.8666859,386.5 70.26,404.91441 70.26,426.914271 C70.26,448.914131 51.8666859,467.328541 29.88,467.328541 Z"></path>
                </g>
                <path d="M30.5,199.5 L30.5,358.5" id="Line" stroke="#24292E" stroke-width="50" stroke-linecap="square"></path>
                <g id="Path">
                    <use fill="#FFFFFF" fill-rule="evenodd" xlink:href="#path-5"></use>
                    <path stroke="#24292E" stroke-width="21" d="M30.88,248.5 C8.71615603,248.5 -9.5,230.15814 -9.5,208.085729 C-9.5,186.085869 8.89331407,167.671459 30.88,167.671459 C52.8666859,167.671459 71.26,186.085869 71.26,208.085729 C71.26,230.08559 52.8666859,248.5 30.88,248.5 Z"></path>
                </g>
            </g>
        </g>
    </g>
</svg>