<?xml version="1.0" encoding="UTF-8"?>
<svg width="861px" height="495px" viewBox="0 0 861 495" version="1.1" xmlns="http://www.w3.org/2000/svg" xmlns:xlink="http://www.w3.org/1999/xlink">
    <!-- Generator: Sketch 48.2 (47327) - http://www.bohemiancoding.com/sketch -->
    <title>upstream</title>
    <desc>Created with Sketch.</desc>
    <defs>
        <path d="M130,278 C130,261.75 143.75,248 160,248 C176.25,248 190,261.75 190,278 C190,294.25 176.25,308 160,308 C143.5,308 130,294.25 130,278 Z" id="path-1"></path>
        <path d="M304,60 C287.5,60 274,46.25 274,30 C274,13.75 287.75,0 304,0 C320.25,0 334,13.75 334,30 C334,46.25 320.25,60 304,60 Z" id="path-2"></path>
        <path d="M274,278 C274,261.75 287.75,248 304,248 C320.25,248 334,261.75 334,278 C334,294.25 320.25,308 304,308 C287.5,308 274,294.25 274,278 Z" id="path-3"></path>
        <path d="M31.88,59.8285414 C15.446,59.8285414 2,46.117834 2,29.9142707 C2,13.7107074 15.695,0 31.88,0 C48.065,0 61.76,13.7107074 61.76,29.9142707 C61.76,46.117834 48.065,59.8285414 31.88,59.8285414 Z" id="path-4"></path>
        <path d="M29.88,456.828541 C13.446,456.828541 0,443.117834 0,426.914271 C0,410.710707 13.695,397 29.88,397 C46.065,397 59.76,410.710707 59.76,426.914271 C59.76,443.117834 46.065,456.828541 29.88,456.828541 Z" id="path-5"></path>
        <path d="M30.88,238 C14.446,238 1,224.289293 1,208.085729 C1,191.882166 14.695,178.171459 30.88,178.171459 C47.065,178.171459 60.76,191.882166 60.76,208.085729 C60.76,224.289293 47.065,238 30.88,238 Z" id="path-6"></path>
    </defs>
    <g id="Page-1" stroke="none" stroke-width="1" fill="none" fill-rule="evenodd">
        <g id="upstream" transform="translate(438.500000, 266.500000) rotate(90.000000) translate(-438.500000, -266.500000) translate(193.000000, -151.000000)">
            <g id="Branch" transform="translate(51.000000, 16.000000)">
                <path d="M0,580 C9.11865992e-05,533.666667 26.6667579,510.5 80,510.5 C133.333242,510.5 159.999863,487.333333 159.999863,441 L160,287.743612" id="Path-4" stroke="#7057FF" stroke-width="50"></path>
                <g id="Path">
                    <use fill="#FFFFFF" fill-rule="evenodd" xlink:href="#path-1"></use>
                    <path stroke="#7057FF" stroke-width="21" d="M119.5,278 C119.5,255.95101 137.95101,237.5 160,237.5 C182.04899,237.5 200.5,255.95101 200.5,278 C200.5,300.04899 182.04899,318.5 160,318.5 C137.773212,318.5 119.5,300.12177 119.5,278 Z"></path>
                </g>
                <path d="M9.28994626,567.624454 C132.214994,567.624454 203.627018,567.624454 223.526019,567.624454 C276.859261,567.624454 303.525882,544.457787 303.525882,498.124454 L303.525882,277.339067" id="Path-4" stroke="#7057FF" stroke-width="50"></path>
                <path d="M303.525882,277.339067 L303.525882,63.4260796" id="Path-4" stroke="#FBCA04" stroke-width="50"></path>
                <g id="Path">
                    <use fill="#FFFFFF" fill-rule="evenodd" xlink:href="#path-2"></use>
                    <path stroke="#FBCA04" stroke-width="21" d="M304,70.5 C281.773212,70.5 263.5,52.1217696 263.5,30 C263.5,7.95101013 281.95101,-10.5 304,-10.5 C326.04899,-10.5 344.5,7.95101013 344.5,30 C344.5,52.0489899 326.04899,70.5 304,70.5 Z"></path>
                </g>
                <g id="Path">
                    <use fill="#FFFFFF" fill-rule="evenodd" xlink:href="#path-3"></use>
                    <path stroke="#7057FF" stroke-width="21" d="M263.5,278 C263.5,255.95101 281.95101,237.5 304,237.5 C326.04899,237.5 344.5,255.95101 344.5,278 C344.5,300.04899 326.04899,318.5 304,318.5 C281.773212,318.5 263.5,300.12177 263.5,278 Z"></path>
                </g>
            </g>
            <g id="Upstream" transform="translate(0.000000, 378.000000)">
                <path d="M30.5,62.5 L30.5,138.5" id="Line" stroke="#24292E" stroke-width="53" stroke-linecap="square"></path>
                <g id="Path">
                    <use fill="#FFFFFF" fill-rule="evenodd" xlink:href="#path-4"></use>
                    <path stroke="#24292E" stroke-width="21" d="M31.88,70.3285414 C9.71615603,70.3285414 -8.5,51.9866818 -8.5,29.9142707 C-8.5,7.91441017 9.89331407,-10.5 31.88,-10.5 C53.8666859,-10.5 72.26,7.91441017 72.26,29.9142707 C72.26,51.9141312 53.8666859,70.3285414 31.88,70.3285414 Z"></path>
                </g>
                <g id="Path">
                    <use fill="#FFFFFF" fill-rule="evenodd" xlink:href="#path-5"></use>
                    <path stroke="#24292E" stroke-width="21" d="M29.88,467.328541 C7.71615603,467.328541 -10.5,448.986682 -10.5,426.914271 C-10.5,404.91441 7.89331407,386.5 29.88,386.5 C51.8666859,386.5 70.26,404.91441 70.26,426.914271 C70.26,448.914131 51.8666859,467.328541 29.88,467.328541 Z"></path>
                </g>
                <path d="M30.5,199.5 L30.5,358.5" id="Line" stroke="#24292E" stroke-width="50" stroke-linecap="square"></path>
                <g id="Path">
                    <use fill="#FFFFFF" fill-rule="evenodd" xlink:href="#path-6"></use>
                    <path stroke="#24292E" stroke-width="21" d="M30.88,248.5 C8.71615603,248.5 -9.5,230.15814 -9.5,208.085729 C-9.5,186.085869 8.89331407,167.671459 30.88,167.671459 C52.8666859,167.671459 71.26,186.085869 71.26,208.085729 C71.26,230.08559 52.8666859,248.5 30.88,248.5 Z"></path>
                </g>
            </g>
            <text id="PR-1" transform="translate(458.562671, 290.500000) rotate(-90.000000) translate(-458.562671, -290.500000) " font-family="AvenirNext-Medium, Avenir Next" font-size="46" font-weight="400" fill="#7057FF">
                <tspan x="411.320671" y="305">PR 1</tspan>
            </text>
            <text id="PR-2" transform="translate(458.562671, 47.500000) rotate(-90.000000) translate(-458.562671, -47.500000) " font-family="AvenirNext-Medium, Avenir Next" font-size="46" font-weight="400" fill="#FBCA04">
                <tspan x="411.320671" y="62">PR 2</tspan>
            </text>
        </g>
    </g>
</svg>